<?xml version="1.0" encoding="UTF-8"?>
<!DOCTYPE svg PUBLIC "-//W3C//DTD SVG 1.1//EN" "http://www.w3.org/Graphics/SVG/1.1/DTD/svg11.dtd">
<!-- Creator: CorelDRAW X6 -->
<svg xmlns="http://www.w3.org/2000/svg" xml:space="preserve" width="100%" height="100%" version="1.1" style="shape-rendering:geometricPrecision; text-rendering:geometricPrecision; image-rendering:optimizeQuality; fill-rule:evenodd; clip-rule:evenodd"
viewBox="0 0 500 500"
 xmlns:xlink="http://www.w3.org/1999/xlink">
 <defs>
  <style type="text/css">
   <![CDATA[
    .fil0 {fill:#ffffff}
   ]]>
  </style>
 </defs>
 <g id="Layer_x0020_1">
  <metadata id="CorelCorpID_0Corel-Layer"/>
  <path class="fil0" d="M480 240l0 175c0,19 -15,33 -33,33l-394 0c-18,0 -33,-14 -33,-33l0 -175c67,39 129,61 197,66l0 22c0,6 5,11 11,11l44 0c6,0 11,-5 11,-11l0 -22c68,-5 130,-27 197,-66zm-290 -188l120 0c11,0 20,9 20,20l0 42 117 0c18,0 33,15 33,33l0 76c-67,39 -129,61 -197,66l0 -38c0,-6 -5,-11 -11,-11l-44 0c-6,0 -11,5 -11,11l0 38c-68,-5 -130,-27 -197,-66l0 -76c0,-18 15,-33 33,-33l117 0 0 -42c0,-11 9,-20 20,-20zm115 62l0 -28c0,-5 -4,-9 -9,-9l-92 0c-5,0 -9,4 -9,9l0 28 110 0zm-38 139l-34 0c-3,0 -5,2 -5,5l0 67c0,3 2,5 5,5l34 0c3,0 5,-2 5,-5l0 -67c0,-3 -2,-5 -5,-5z"/>
 </g>
</svg>
