<svg width="512" height="512" xmlns="http://www.w3.org/2000/svg">

 <g>
  <title>background</title>
  <rect fill="none" id="canvas_background" height="402" width="582" y="-1" x="-1"/>
 </g>
 <g>
  <title>Layer 1</title>
  <g transform="rotate(90 256.52905273437506,254.41270446777347) " id="svg_1">
   <path id="svg_2" d="m256.529101,-1.587302c-141.391,0 -256,114.609 -256,256c0,141.391 114.609,256 256,256c141.391,0 256,-114.609 256,-256c0,-141.391 -114.609,-256 -256,-256zm0,472c-119.297,0 -216,-96.703 -216,-216s96.703,-216 216,-216s216,96.703 216,216s-96.703,216 -216,216z" fill="#ffffff"/>
   <polygon fill="#ffffff" id="svg_3" points="384.5291005373001,238.41269838809967 186.1230946779251,238.41269838809967 224.5291005373001,197.25669252872467 203.1851063966751,174.41269838809967 128.5291005373001,254.41269838809967 203.1851063966751,334.41269838809967 224.5291005373001,311.53769838809967 186.1230946779251,270.41269838809967 384.5291005373001,270.41269838809967 "/>
  </g>
  <g id="svg_4"/>
  <g id="svg_5"/>
  <g id="svg_6"/>
  <g id="svg_7"/>
  <g id="svg_8"/>
  <g id="svg_9"/>
  <g id="svg_10"/>
  <g id="svg_11"/>
  <g id="svg_12"/>
  <g id="svg_13"/>
  <g id="svg_14"/>
  <g id="svg_15"/>
  <g id="svg_16"/>
  <g id="svg_17"/>
  <g id="svg_18"/>
 </g>
</svg>